<?xml version="1.0" encoding="utf-8"?>
<!-- Generator: Adobe Illustrator 22.1.0, SVG Export Plug-In . SVG Version: 6.00 Build 0)  -->
<svg version="1.1" id="Layer_1" xmlns="http://www.w3.org/2000/svg" xmlns:xlink="http://www.w3.org/1999/xlink" x="0px" y="0px"
	 viewBox="0 0 300 140" style="enable-background:new 0 0 300 140;" xml:space="preserve">
<style type="text/css">
	.st0{fill:url(#SVGID_1_);}
	.st1{fill:url(#SVGID_2_);}
	.st2{fill:url(#SVGID_3_);}
	.st3{fill:url(#SVGID_4_);}
	.st4{fill:url(#SVGID_5_);}
	.st5{fill:url(#SVGID_6_);}
	.st6{fill:url(#SVGID_7_);}
	.st7{fill:url(#SVGID_8_);}
	.st8{fill:url(#SVGID_9_);}
</style>
<g>
	<g>
		<g>
			<linearGradient id="SVGID_1_" gradientUnits="userSpaceOnUse" x1="7.7936" y1="21.781" x2="242.7936" y2="489.781">
				<stop  offset="0" style="stop-color:#EF4D3C"/>
				<stop  offset="1" style="stop-color:#EF1956"/>
			</linearGradient>
			<path class="st0" d="M24.4,58.7l-4.4,36l-2.1,8.8c-0.3,1.1-0.9,2-1.6,2.6c-0.7,0.6-1.7,0.9-2.9,0.9H10l6-48.2l-4.1-0.6
				c-0.6-0.1-1.1-0.4-1.5-0.7c-0.3-0.3-0.5-0.8-0.4-1.4l0.4-3.6h6.4l0.3-2.2c0.3-2.4,0.9-4.8,1.9-6.9c1-2.2,2.3-4.1,3.9-5.7
				c1.6-1.6,3.6-2.9,5.8-3.9c2.3-1,4.8-1.4,7.7-1.4c2.3,0,4.5,0.1,6.6,0.3c2.1,0.2,4.2,0.3,6.2,0.3H54l-7.8,63.3h-8.4l7-57.1
				c-1.3-0.1-2.7-0.3-4-0.4c-1.3-0.1-2.6-0.2-3.9-0.2c-3.3,0-6,1-8,3.1c-2.1,2-3.3,5-3.7,8.8l-0.3,2.2h10.3l-0.8,6.2H24.4z"/>
			<linearGradient id="SVGID_2_" gradientUnits="userSpaceOnUse" x1="38.1218" y1="6.5521" x2="273.1218" y2="474.5521">
				<stop  offset="0" style="stop-color:#EF4D3C"/>
				<stop  offset="1" style="stop-color:#EF1956"/>
			</linearGradient>
			<path class="st1" d="M89.9,51.8l-5.4,44.3h-4.3c-2.1,0-3.1-1-3.1-3.1l0.5-7.2c-2.3,3.6-4.9,6.3-7.8,8.2c-2.9,1.8-5.9,2.7-8.9,2.7
				c-1.9,0-3.5-0.4-5-1.1c-1.4-0.7-2.6-1.8-3.5-3.2c-0.9-1.4-1.5-3.2-1.9-5.3c-0.3-2.1-0.3-4.5,0-7.1l3.4-28.2h8.5L59,80
				c-0.4,3.3-0.2,5.8,0.6,7.3c0.8,1.6,2.3,2.4,4.5,2.4c1.3,0,2.7-0.4,4.1-1.1c1.4-0.7,2.7-1.7,4-3c1.3-1.3,2.5-2.9,3.6-4.8
				c1.1-1.9,2.1-3.9,2.8-6.2l2.7-22.8H89.9z"/>
			<linearGradient id="SVGID_3_" gradientUnits="userSpaceOnUse" x1="65.5675" y1="-7.2294" x2="300.5675" y2="460.7706">
				<stop  offset="0" style="stop-color:#EF4D3C"/>
				<stop  offset="1" style="stop-color:#EF1956"/>
			</linearGradient>
			<path class="st2" d="M122.6,88c-1.5,1.5-3,2.9-4.4,4c-1.4,1.1-2.9,2-4.4,2.8c-1.5,0.7-3.1,1.3-4.7,1.6c-1.6,0.3-3.4,0.5-5.4,0.5
				c-2.6,0-4.9-0.4-6.9-1.3c-2.1-0.9-3.8-2.1-5.3-3.7c-1.4-1.6-2.5-3.5-3.3-5.7c-0.8-2.2-1.2-4.7-1.2-7.5c0-2.3,0.2-4.6,0.7-6.8
				c0.5-2.3,1.2-4.4,2.1-6.4c0.9-2,2.1-3.9,3.4-5.7c1.3-1.7,2.9-3.3,4.6-4.5c1.7-1.3,3.6-2.2,5.7-3c2.1-0.7,4.3-1.1,6.7-1.1
				c2.3,0,4.3,0.3,6,1c1.7,0.6,3.1,1.5,4.2,2.5c1.1,1,1.9,2.1,2.4,3.3c0.5,1.2,0.8,2.4,0.8,3.6c0,1.9-0.4,3.7-1.2,5.3
				c-0.8,1.6-2.2,3.1-4.3,4.4c-2.1,1.3-5,2.4-8.7,3.4c-3.7,1-8.4,1.7-14.1,2.3c0,0.3,0,0.5,0,0.8c0,0.3,0,0.5,0,0.8
				c0,3.8,0.8,6.7,2.5,8.6c1.7,2,4.2,2.9,7.5,2.9c1.4,0,2.6-0.1,3.7-0.4c1.1-0.3,2.1-0.6,2.9-1c0.8-0.4,1.6-0.8,2.2-1.3
				c0.6-0.5,1.2-0.9,1.8-1.3c0.5-0.4,1-0.8,1.5-1c0.5-0.3,1-0.4,1.5-0.4c0.3,0,0.6,0.1,0.9,0.2c0.3,0.2,0.5,0.4,0.7,0.6L122.6,88z
				 M109.8,57.3c-1.8,0-3.4,0.4-4.8,1.1c-1.5,0.7-2.8,1.7-4,3c-1.2,1.3-2.2,2.8-3,4.5c-0.8,1.7-1.5,3.6-1.9,5.6
				c4.3-0.5,7.8-1.2,10.4-1.8c2.6-0.7,4.6-1.4,6-2.2c1.4-0.8,2.3-1.6,2.8-2.5c0.5-0.9,0.7-1.9,0.7-2.9c0-0.5-0.1-1-0.3-1.5
				c-0.2-0.5-0.6-1-1.1-1.5c-0.5-0.4-1.1-0.8-1.9-1.1C111.9,57.4,110.9,57.3,109.8,57.3z"/>
			<linearGradient id="SVGID_4_" gradientUnits="userSpaceOnUse" x1="91.1227" y1="-20.0616" x2="326.1227" y2="447.9384">
				<stop  offset="0" style="stop-color:#EF4D3C"/>
				<stop  offset="1" style="stop-color:#EF1956"/>
			</linearGradient>
			<path class="st3" d="M132.5,62.4c2.4-3.7,5-6.5,8-8.4c2.9-1.9,6-2.8,9.1-2.8c1.9,0,3.5,0.4,5,1.1c1.5,0.8,2.6,1.8,3.6,3.3
				c0.9,1.4,1.5,3.2,1.9,5.3c0.3,2.1,0.3,4.4,0,7.1l-3.3,28.2H148l3.4-28.2c0.4-3.4,0.2-5.8-0.6-7.4c-0.8-1.5-2.3-2.3-4.5-2.3
				c-1.3,0-2.7,0.4-4.1,1.1c-1.4,0.7-2.8,1.8-4.1,3.1c-1.3,1.4-2.5,3-3.7,4.9c-1.1,1.9-2.1,4.1-2.8,6.4l-2.5,22.3h-8.6l5.3-44.4h4.3
				c0.9,0,1.7,0.2,2.2,0.7c0.5,0.5,0.8,1.2,0.8,2.2L132.5,62.4z"/>
			<linearGradient id="SVGID_5_" gradientUnits="userSpaceOnUse" x1="119.45" y1="-34.2858" x2="354.45" y2="433.7142">
				<stop  offset="0" style="stop-color:#EF4D3C"/>
				<stop  offset="1" style="stop-color:#EF1956"/>
			</linearGradient>
			<path class="st4" d="M161.6,87.6c0-0.2,0-0.4,0-0.7c0-0.3,0-0.7,0.1-1.2c0-0.5,0.1-1.2,0.2-2.1c0.1-0.9,0.2-2,0.4-3.4l2.7-21.6
				h-4.8c-0.4,0-0.8-0.2-1.1-0.5c-0.3-0.3-0.4-0.8-0.3-1.4l0.4-3.5l6.8-1l3.4-13.2c0.2-0.5,0.4-0.9,0.7-1.1c0.3-0.3,0.8-0.4,1.3-0.4
				h4.6l-1.9,14.9h6.9l-1,6.2h-6.6l-2.6,21.1c-0.1,1.2-0.3,2.2-0.3,2.9c-0.1,0.7-0.2,1.3-0.2,1.7c0,0.4-0.1,0.7-0.1,0.9
				c0,0.2,0,0.3,0,0.4c0,1.4,0.3,2.4,1,3.1c0.7,0.7,1.6,1,2.7,1c0.7,0,1.4-0.1,1.9-0.3c0.5-0.2,1.1-0.4,1.5-0.7
				c0.5-0.4,0.6-0.6,0.9-0.9c0.3-0.2,0.6-0.1,0.8-0.1c0.3,0,0.5,0.1,0.6,0.2c0.1,0.1,0.3,0.3,0.4,0.6l0.7,1.5
				c-0.3,2.2-0.2,3.4-2,4.8c-1.5,1.2-5.6,1.7-7.4,1.7c-2.9,0-5.3-0.8-7-2.4C162.5,92.9,161.6,90.6,161.6,87.6z"/>
		</g>
	</g>
	<g>
		<linearGradient id="SVGID_6_" gradientUnits="userSpaceOnUse" x1="181.8648" y1="-65.6266" x2="416.8648" y2="402.3734">
			<stop  offset="0" style="stop-color:#EF4D3C"/>
			<stop  offset="1" style="stop-color:#EF1956"/>
		</linearGradient>
		<path class="st5" d="M259.8,63.2c-1.4,0-2.7,0.4-4.1,1.3c-1.4,0.9-2.7,2-4,3.5c-1.3,1.5-2.5,3.3-3.6,5.4c-1.1,2.1-2.1,4.3-2.9,6.8
			l-1.4,11.4c1.1,1.4,2.4,2.4,3.9,3.1c1.5,0.6,3,0.9,4.5,0.9c1.5,0,2.9-0.3,4.2-0.9c1.3-0.6,2.5-1.5,3.6-2.5c1.1-1.1,2-2.3,2.9-3.7
			c0.8-1.4,1.6-3,2.2-4.6c0.6-1.6,1-3.3,1.4-5.1c0.3-1.8,0.4-3.5,0.4-5.2c0-3.4-0.6-5.9-1.8-7.7C263.7,64.1,262,63.2,259.8,63.2z"/>
		<linearGradient id="SVGID_7_" gradientUnits="userSpaceOnUse" x1="155.0616" y1="-52.1677" x2="390.0616" y2="415.8323">
			<stop  offset="0" style="stop-color:#EF4D3C"/>
			<stop  offset="1" style="stop-color:#EF1956"/>
		</linearGradient>
		<path class="st6" d="M288.7,44l-40.4-30.4c-2.4-1.8-6.5-2.3-9.3-1.1l-46.5,19.8c-2.7,1.2-5.2,4.5-5.6,7.5l-4.7,37.6
			c-0.4,2.9-1.4,6.7-2.5,8.3c-1.1,1.6-3.4,4.4-5.1,6.2c-1.7,1.8-5.6,3.3-8.5,3.3h-21.1c-3,0-3,0.5-0.2,1.3l49.7,12.4
			c2.9,0.7,5.2,1.3,5.2,1.3c0,0,1.9,1.5,4.3,3.2l20.7,15.6c2.4,1.8,6.5,2.3,9.3,1.1l46.5-19.8c2.7-1.2,5.2-4.5,5.6-7.5l6.1-50.2
			C292.7,49.6,291.1,45.7,288.7,44z M226.1,95c-2.3,2.3-5,4-8.1,5.3c-3.1,1.3-6.4,1.9-10.1,1.9c-3.7,0-6.9-0.6-9.6-1.9
			c-2.8-1.3-5-3.1-6.8-5.3c-1.8-2.3-3-5-3.7-8.1c-0.7-3.1-0.8-6.5-0.4-10.1c0,0,4.2-33.6,4.5-36c0.2-1.9,1.8-3.8,3.8-4.7
			c1.3-0.6,6-2.5,6-2.5l-5.3,43.3c-0.3,2.6-0.3,4.9,0.1,7.1c0.4,2.2,1.1,4,2.2,5.6c1.1,1.5,2.4,2.7,4.1,3.6c1.7,0.9,3.7,1.3,6,1.3
			c2.3,0,4.4-0.4,6.3-1.3c1.9-0.9,3.6-2.1,5-3.6c1.4-1.6,2.6-3.4,3.6-5.6c0.9-2.1,1.6-4.4,1.9-7l4.7-38h9.1l-4.7,38
			c-0.5,3.7-1.4,6.9-2.9,10.1C230.3,90.1,228.4,92.7,226.1,95z M274.5,79.9c-0.5,2.4-1.2,4.7-2.2,6.9c-0.9,2.2-2.1,4.2-3.4,6.1
			c-1.3,1.9-2.8,3.5-4.4,4.9c-1.6,1.4-3.4,2.5-5.2,3.2c-1.9,0.8-3.8,1.1-5.9,1.1c-2.2,0-4.1-0.4-5.9-1.2c-1.8-0.8-3.3-2-4.5-3.5
			l-2.8,24.8l-5.6,2.4c-1,0.4-2.3,0.6-3.5,0.5l8.5-68.2h4.3c0.9,0,1.7,0.2,2.2,0.7c0.5,0.5,0.8,1.2,0.8,2.2l-0.6,8.6
			c1.1-1.8,2.3-3.5,3.6-5c1.3-1.5,2.7-2.7,4.1-3.8c1.4-1.1,2.9-1.9,4.5-2.4c1.6-0.6,3.1-0.9,4.8-0.9c3.8,0,6.7,1.4,8.9,4.1
			c2.2,2.7,3.2,6.8,3.2,12.2C275.2,75.1,275,77.5,274.5,79.9z"/>
	</g>
</g>
<linearGradient id="SVGID_8_" gradientUnits="userSpaceOnUse" x1="194.0508" y1="27.6284" x2="194.0508" y2="27.6284">
	<stop  offset="0" style="stop-color:#EF4D3C"/>
	<stop  offset="1" style="stop-color:#EF2E3C"/>
</linearGradient>
<path class="st7" d="M194.1,27.6"/>
<linearGradient id="SVGID_9_" gradientUnits="userSpaceOnUse" x1="185.2979" y1="98.0176" x2="185.2979" y2="98.0176">
	<stop  offset="0" style="stop-color:#EF4D3C"/>
	<stop  offset="1" style="stop-color:#EF2E3C"/>
</linearGradient>
<path class="st8" d="M185.3,98"/>
</svg>
